<svg width="638" height="81" viewBox="0 0 638 81" fill="none" xmlns="http://www.w3.org/2000/svg">
    <g opacity="0.7" filter="url(#filter0_d_2034_94)">
        <rect x="5" y="1" width="628" height="71" rx="30" fill="#D9D9D9" fill-opacity="0.7" shape-rendering="crispEdges"/>
        <rect x="5" y="1" width="628" height="71" rx="30" stroke="black" shape-rendering="crispEdges"/>
    </g>
    <path opacity="0.7" d="M47.512 30.144H55.24V32.804H47.512V30.144ZM46.056 38.152H49.976V40.308H46.056V38.152ZM46.056 41.792H49.976V44.172H46.056V41.792ZM52.188 35.072H54.484V45.152H52.188V35.072ZM51.404 26.308C50.956 27.092 50.396 27.9133 49.724 28.772C49.052 29.6307 48.296 30.4613 47.456 31.264C46.6347 32.048 45.7667 32.7387 44.852 33.336C44.684 32.9067 44.4413 32.4307 44.124 31.908C43.8253 31.3667 43.536 30.9187 43.256 30.564C44.1707 30.0227 45.048 29.3413 45.888 28.52C46.7467 27.6987 47.512 26.8307 48.184 25.916C48.8747 24.9827 49.4253 24.096 49.836 23.256H52.748C53.3267 24.1893 53.9893 25.104 54.736 26C55.4827 26.896 56.276 27.7173 57.116 28.464C57.9747 29.192 58.8333 29.78 59.692 30.228C59.3933 30.6013 59.0853 31.0587 58.768 31.6C58.4693 32.1413 58.208 32.6547 57.984 33.14C57.144 32.5987 56.3133 31.9547 55.492 31.208C54.6707 30.4427 53.9053 29.6307 53.196 28.772C52.4867 27.9133 51.8893 27.092 51.404 26.308ZM44.6 34.344H49.864V36.696H46.868V49.408H44.6V34.344ZM48.856 34.344H51.152V46.972C51.152 47.476 51.1053 47.896 51.012 48.232C50.9373 48.568 50.76 48.848 50.48 49.072C50.1813 49.2587 49.8547 49.3707 49.5 49.408C49.1453 49.464 48.7347 49.492 48.268 49.492C48.2493 49.1747 48.184 48.792 48.072 48.344C47.96 47.896 47.8387 47.5133 47.708 47.196C47.9133 47.196 48.1 47.196 48.268 47.196C48.436 47.196 48.5667 47.196 48.66 47.196C48.7907 47.196 48.856 47.1027 48.856 46.916V34.344ZM55.744 33.896H58.376V46.664C58.376 47.28 58.3013 47.7747 58.152 48.148C58.0213 48.5213 57.76 48.8107 57.368 49.016C56.9573 49.2213 56.4627 49.3427 55.884 49.38C55.3053 49.436 54.6053 49.464 53.784 49.464C53.728 49.1093 53.6253 48.6987 53.476 48.232C53.3453 47.7653 53.196 47.3547 53.028 47C53.532 47.0187 53.9987 47.028 54.428 47.028C54.876 47.028 55.1747 47.028 55.324 47.028C55.604 47.0093 55.744 46.8787 55.744 46.636V33.896ZM33.148 25.86H44.124V28.744H33.148V25.86ZM32.812 42.156H44.04V45.068H32.812V42.156ZM37.012 23.172H39.924V31.46H37.012V23.172ZM37.488 31.46H39.504V39.244H39.952V49.464H37.012V39.244H37.488V31.46ZM35.78 36.472V38.124H41.184V36.472H35.78ZM35.78 32.636V34.288H41.184V32.636H35.78ZM33.484 30.312H43.564V40.476H33.484V30.312ZM66.412 24.768H74.364V28.184H66.412V24.768ZM72.712 24.768H76.184C76.184 25.664 76.2213 26.6813 76.296 27.82C76.3707 28.94 76.5293 30.144 76.772 31.432C77.0147 32.7013 77.3787 34.008 77.864 35.352C78.3493 36.696 78.9933 38.0307 79.796 39.356C80.6173 40.6627 81.644 41.9227 82.876 43.136C84.108 44.3493 85.5827 45.4693 87.3 46.496C87.0573 46.6827 86.7587 46.9533 86.404 47.308C86.0493 47.6627 85.704 48.0267 85.368 48.4C85.0507 48.792 84.7893 49.1373 84.584 49.436C82.8293 48.3533 81.308 47.14 80.02 45.796C78.732 44.4333 77.6493 42.996 76.772 41.484C75.8947 39.9533 75.1853 38.4133 74.644 36.864C74.1027 35.296 73.692 33.7747 73.412 32.3C73.132 30.8067 72.9453 29.416 72.852 28.128C72.7587 26.84 72.712 25.72 72.712 24.768ZM71.508 30.928L75.344 31.628C74.7093 34.3907 73.86 36.9013 72.796 39.16C71.732 41.4187 70.4533 43.4067 68.96 45.124C67.4853 46.8413 65.7773 48.288 63.836 49.464C63.6307 49.2213 63.3413 48.9227 62.968 48.568C62.5947 48.232 62.2027 47.8867 61.792 47.532C61.4 47.196 61.0547 46.9253 60.756 46.72C63.6867 45.2453 66.02 43.1733 67.756 40.504C69.492 37.816 70.7427 34.624 71.508 30.928ZM102.868 24.068H109.812V27.176H102.868V24.068ZM100.348 35.072H111.492V38.124H100.348V35.072ZM101.58 24.068H104.8V27.316C104.8 28.1747 104.707 29.0707 104.52 30.004C104.352 30.9187 104.025 31.8053 103.54 32.664C103.055 33.504 102.336 34.2507 101.384 34.904C101.216 34.6987 100.973 34.456 100.656 34.176C100.339 33.896 100.012 33.616 99.676 33.336C99.3587 33.056 99.0787 32.8507 98.836 32.72C99.676 32.1973 100.283 31.628 100.656 31.012C101.048 30.3773 101.3 29.7427 101.412 29.108C101.524 28.4547 101.58 27.8293 101.58 27.232V24.068ZM108.048 24.068H111.212V30.312C111.212 30.6853 111.231 30.928 111.268 31.04C111.305 31.1333 111.399 31.18 111.548 31.18C111.585 31.18 111.641 31.18 111.716 31.18C111.809 31.18 111.893 31.18 111.968 31.18C112.061 31.18 112.127 31.18 112.164 31.18C112.295 31.18 112.388 31.1147 112.444 30.984C112.5 30.8347 112.547 30.5453 112.584 30.116C112.64 29.6867 112.677 29.0333 112.696 28.156C112.995 28.4173 113.415 28.66 113.956 28.884C114.516 29.108 115.001 29.2667 115.412 29.36C115.319 30.5733 115.16 31.516 114.936 32.188C114.731 32.86 114.432 33.3267 114.04 33.588C113.667 33.8493 113.172 33.98 112.556 33.98C112.407 33.98 112.229 33.98 112.024 33.98C111.819 33.98 111.623 33.98 111.436 33.98C111.249 33.98 111.081 33.98 110.932 33.98C110.204 33.98 109.625 33.8773 109.196 33.672C108.785 33.448 108.487 33.0747 108.3 32.552C108.132 32.0293 108.048 31.3013 108.048 30.368V24.068ZM104.184 38.012C105.173 40.028 106.648 41.8013 108.608 43.332C110.568 44.844 112.855 45.9547 115.468 46.664C115.225 46.888 114.955 47.168 114.656 47.504C114.357 47.8587 114.077 48.2227 113.816 48.596C113.573 48.9693 113.368 49.3053 113.2 49.604C110.437 48.6893 108.039 47.3267 106.004 45.516C103.988 43.7053 102.355 41.5493 101.104 39.048L104.184 38.012ZM110.4 35.072H111.044L111.604 34.932L113.788 35.8C113.303 37.6293 112.649 39.272 111.828 40.728C111.007 42.184 110.036 43.472 108.916 44.592C107.815 45.712 106.583 46.6733 105.22 47.476C103.876 48.2973 102.42 48.9787 100.852 49.52C100.74 49.24 100.572 48.9133 100.348 48.54C100.143 48.1853 99.9187 47.8307 99.676 47.476C99.4333 47.14 99.2 46.86 98.976 46.636C100.357 46.244 101.664 45.712 102.896 45.04C104.128 44.3493 105.239 43.5373 106.228 42.604C107.217 41.6707 108.067 40.616 108.776 39.44C109.504 38.264 110.045 36.9853 110.4 35.604V35.072ZM91.864 24.18H98.024V27.288H91.864V24.18ZM91.864 30.48H98.136V33.588H91.864V30.48ZM91.836 36.836H98.024V40.028H91.836V36.836ZM90.548 24.18H93.572V34.4C93.572 35.52 93.544 36.7427 93.488 38.068C93.432 39.3933 93.3293 40.7373 93.18 42.1C93.0307 43.4627 92.8067 44.788 92.508 46.076C92.228 47.364 91.8453 48.5213 91.36 49.548C91.1733 49.38 90.912 49.1933 90.576 48.988C90.2587 48.7827 89.9227 48.5867 89.568 48.4C89.2133 48.232 88.9053 48.1013 88.644 48.008C89.092 47.056 89.4373 46.0107 89.68 44.872C89.9413 43.7147 90.128 42.5293 90.24 41.316C90.3707 40.1027 90.4547 38.908 90.492 37.732C90.5293 36.5373 90.548 35.4267 90.548 34.4V24.18ZM96.148 24.18H99.256V45.852C99.256 46.6173 99.1813 47.2427 99.032 47.728C98.8827 48.2133 98.584 48.596 98.136 48.876C97.688 49.156 97.1467 49.3333 96.512 49.408C95.896 49.4827 95.1307 49.52 94.216 49.52C94.1973 49.2213 94.1413 48.8667 94.048 48.456C93.9547 48.064 93.8427 47.672 93.712 47.28C93.5813 46.888 93.4507 46.552 93.32 46.272C93.824 46.2907 94.3 46.3 94.748 46.3C95.2147 46.3 95.532 46.3 95.7 46.3C95.868 46.3 95.98 46.2627 96.036 46.188C96.1107 46.1133 96.148 45.9827 96.148 45.796V24.18ZM133.556 44.62L136.02 42.968C136.748 43.3227 137.513 43.752 138.316 44.256C139.119 44.76 139.893 45.264 140.64 45.768C141.387 46.272 142.012 46.748 142.516 47.196L139.828 49.072C139.399 48.6427 138.829 48.1667 138.12 47.644C137.429 47.1213 136.683 46.5987 135.88 46.076C135.077 45.5347 134.303 45.0493 133.556 44.62ZM120.676 36.304H139.352V38.852H120.676V36.304ZM117.344 40.028H142.74V42.66H117.344V40.028ZM117.736 24.124H142.18V26.784H117.736V24.124ZM128.32 40.504H131.708V46.3C131.708 47.0467 131.615 47.6347 131.428 48.064C131.26 48.4933 130.915 48.82 130.392 49.044C129.869 49.268 129.253 49.408 128.544 49.464C127.853 49.52 127.041 49.548 126.108 49.548C126.052 49.1 125.921 48.5867 125.716 48.008C125.511 47.448 125.305 46.9627 125.1 46.552C125.66 46.5707 126.211 46.5893 126.752 46.608C127.293 46.608 127.657 46.5987 127.844 46.58C128.031 46.58 128.152 46.552 128.208 46.496C128.283 46.44 128.32 46.3373 128.32 46.188V40.504ZM122.888 42.884L125.968 43.948C125.445 44.6387 124.829 45.32 124.12 45.992C123.411 46.664 122.664 47.2893 121.88 47.868C121.115 48.4467 120.368 48.9507 119.64 49.38C119.453 49.1747 119.211 48.9227 118.912 48.624C118.613 48.344 118.305 48.064 117.988 47.784C117.671 47.5227 117.391 47.308 117.148 47.14C118.249 46.636 119.313 46.0107 120.34 45.264C121.385 44.4987 122.235 43.7053 122.888 42.884ZM122.468 30.648V32.748H137.364V30.648H122.468ZM119.36 28.268H140.696V35.156H119.36V28.268ZM125.296 25.16H128.376V34.176H125.296V25.16ZM131.288 25.16H134.452V34.176H131.288V25.16ZM153.52 32.664L170.544 30.396L171.02 33.56L153.996 35.884L153.52 32.664ZM164.048 24.992L166.568 23.424C167.053 23.8533 167.557 24.3387 168.08 24.88C168.603 25.4213 169.088 25.9627 169.536 26.504C169.984 27.0267 170.339 27.512 170.6 27.96L167.884 29.668C167.66 29.2387 167.333 28.7533 166.904 28.212C166.475 27.652 166.008 27.092 165.504 26.532C165.019 25.972 164.533 25.4587 164.048 24.992ZM151.952 23.452L155.172 24.488C154.463 26.1493 153.623 27.8013 152.652 29.444C151.7 31.0867 150.664 32.6267 149.544 34.064C148.443 35.5013 147.304 36.7613 146.128 37.844C146.035 37.564 145.876 37.2093 145.652 36.78C145.428 36.3507 145.185 35.9213 144.924 35.492C144.681 35.0627 144.457 34.708 144.252 34.428C145.279 33.5693 146.268 32.552 147.22 31.376C148.172 30.2 149.059 28.94 149.88 27.596C150.701 26.2333 151.392 24.852 151.952 23.452ZM149.068 31.488L152.484 28.044L152.54 28.1V49.464H149.068V31.488ZM158.756 23.648H162.172C162.209 26.6347 162.34 29.4253 162.564 32.02C162.807 34.596 163.143 36.864 163.572 38.824C164.001 40.784 164.533 42.3427 165.168 43.5C165.803 44.6387 166.54 45.264 167.38 45.376C167.697 45.3947 167.949 45.04 168.136 44.312C168.323 43.584 168.472 42.4453 168.584 40.896C168.789 41.12 169.069 41.3627 169.424 41.624C169.779 41.8853 170.133 42.128 170.488 42.352C170.843 42.5573 171.123 42.716 171.328 42.828C171.085 44.6387 170.759 46.0293 170.348 47C169.956 47.9707 169.517 48.624 169.032 48.96C168.547 49.3147 168.043 49.4733 167.52 49.436C166.195 49.3053 165.056 48.82 164.104 47.98C163.152 47.14 162.349 45.9733 161.696 44.48C161.061 42.9867 160.539 41.204 160.128 39.132C159.736 37.06 159.437 34.7267 159.232 32.132C159.027 29.5187 158.868 26.6907 158.756 23.648ZM173.092 24.236H183.76V27.288H173.092V24.236ZM176.368 33.168H182.948V46.104H176.368V43.22H180.036V36.08H176.368V33.168ZM176.144 25.86L179.28 26.336C179 28.352 178.645 30.3307 178.216 32.272C177.787 34.1947 177.236 36.0053 176.564 37.704C175.911 39.384 175.117 40.8587 174.184 42.128C174.091 41.8667 173.932 41.54 173.708 41.148C173.503 40.7373 173.279 40.3267 173.036 39.916C172.793 39.5053 172.569 39.1787 172.364 38.936C173.092 37.9093 173.699 36.7053 174.184 35.324C174.669 33.924 175.061 32.4213 175.36 30.816C175.677 29.2107 175.939 27.5587 176.144 25.86ZM174.912 33.168H177.796V48.288H174.912V33.168ZM186.252 28.66H197.452V31.264H186.252V28.66ZM186.252 32.888H197.452V35.492H186.252V32.888ZM184.656 37.2H196.752V40.112H184.656V37.2ZM190.452 25.776H193.42V38.348H190.452V25.776ZM187.008 42.072L189.192 41.764C189.36 42.5667 189.491 43.444 189.584 44.396C189.677 45.348 189.715 46.1693 189.696 46.86L187.372 47.224C187.409 46.5147 187.391 45.684 187.316 44.732C187.26 43.7613 187.157 42.8747 187.008 42.072ZM189.948 41.904L191.964 41.344C192.225 42.016 192.459 42.744 192.664 43.528C192.888 44.312 193.037 44.9933 193.112 45.572L190.984 46.16C190.909 45.6 190.769 44.9187 190.564 44.116C190.377 43.3133 190.172 42.576 189.948 41.904ZM192.72 41.372L194.4 40.7C194.755 41.1853 195.072 41.736 195.352 42.352C195.651 42.9493 195.865 43.4627 195.996 43.892L194.232 44.676C194.101 44.228 193.896 43.696 193.616 43.08C193.336 42.4453 193.037 41.876 192.72 41.372ZM184.264 40.896L186.7 41.512C186.569 42.744 186.364 43.976 186.084 45.208C185.804 46.4213 185.347 47.4387 184.712 48.26L182.416 46.972C182.957 46.2627 183.368 45.3573 183.648 44.256C183.947 43.1547 184.152 42.0347 184.264 40.896ZM184.656 24.236H198.264V27.12H187.708V38.74H184.656V24.236ZM195.744 37.2H198.824C198.824 37.2 198.815 37.3587 198.796 37.676C198.796 37.9747 198.787 38.2267 198.768 38.432C198.693 40.5787 198.591 42.3333 198.46 43.696C198.348 45.0587 198.208 46.1133 198.04 46.86C197.891 47.588 197.695 48.1107 197.452 48.428C197.191 48.764 196.901 49.0067 196.584 49.156C196.285 49.3053 195.931 49.408 195.52 49.464C195.165 49.52 194.717 49.548 194.176 49.548C193.635 49.5667 193.056 49.5667 192.44 49.548C192.421 49.1 192.337 48.6053 192.188 48.064C192.039 47.5227 191.843 47.056 191.6 46.664C192.104 46.72 192.571 46.7573 193 46.776C193.429 46.7947 193.747 46.804 193.952 46.804C194.157 46.804 194.316 46.776 194.428 46.72C194.559 46.664 194.689 46.5707 194.82 46.44C194.988 46.2533 195.128 45.8613 195.24 45.264C195.352 44.648 195.445 43.7333 195.52 42.52C195.613 41.3067 195.688 39.7013 195.744 37.704V37.2ZM204.166 47.2585C203.51 47.2585 202.946 47.0265 202.476 46.5625C202.012 46.0919 201.78 45.5284 201.78 44.8722C201.78 44.2225 202.012 43.6657 202.476 43.2017C202.946 42.7377 203.51 42.5057 204.166 42.5057C204.803 42.5057 205.359 42.7377 205.837 43.2017C206.314 43.6657 206.553 44.2225 206.553 44.8722C206.553 45.3097 206.44 45.7107 206.214 46.0753C205.996 46.4332 205.707 46.7216 205.349 46.9403C204.991 47.1525 204.597 47.2585 204.166 47.2585ZM212.506 47.2585C211.85 47.2585 211.286 47.0265 210.816 46.5625C210.352 46.0919 210.12 45.5284 210.12 44.8722C210.12 44.2225 210.352 43.6657 210.816 43.2017C211.286 42.7377 211.85 42.5057 212.506 42.5057C213.142 42.5057 213.699 42.7377 214.176 43.2017C214.654 43.6657 214.892 44.2225 214.892 44.8722C214.892 45.3097 214.78 45.7107 214.554 46.0753C214.336 46.4332 214.047 46.7216 213.689 46.9403C213.331 47.1525 212.937 47.2585 212.506 47.2585ZM220.846 47.2585C220.19 47.2585 219.626 47.0265 219.156 46.5625C218.692 46.0919 218.46 45.5284 218.46 44.8722C218.46 44.2225 218.692 43.6657 219.156 43.2017C219.626 42.7377 220.19 42.5057 220.846 42.5057C221.482 42.5057 222.039 42.7377 222.516 43.2017C222.994 43.6657 223.232 44.2225 223.232 44.8722C223.232 45.3097 223.12 45.7107 222.894 46.0753C222.675 46.4332 222.387 46.7216 222.029 46.9403C221.671 47.1525 221.277 47.2585 220.846 47.2585Z" fill="black"/>
    <path d="M583.777 17.0508C573.974 17.0508 566 25.0248 566 34.8274C566 44.6299 573.974 52.6039 583.777 52.6039C586.773 52.6039 589.719 51.8929 592.208 50.5215C592.407 50.7614 592.628 50.9824 592.868 51.1818L597.947 56.2608C598.416 56.7885 598.988 57.2148 599.628 57.5135C600.267 57.8122 600.961 57.977 601.667 57.9978C602.373 58.0185 603.075 57.8948 603.731 57.6343C604.387 57.3738 604.983 56.9818 605.483 56.4826C605.982 55.9834 606.374 55.3874 606.634 54.7313C606.895 54.0751 607.019 53.3727 606.998 52.667C606.977 51.9613 606.812 51.2673 606.514 50.6276C606.215 49.9879 605.789 49.416 605.261 48.947L600.182 43.868C599.934 43.6205 599.662 43.3992 599.369 43.2077C600.74 40.719 601.604 37.824 601.604 34.7766C601.604 24.9741 593.63 17 583.827 17L583.777 17.0508ZM583.777 22.1298C590.836 22.1298 596.474 27.7675 596.474 34.8274C596.474 38.1795 595.255 41.2777 593.122 43.5633C593.071 43.6141 593.02 43.6648 592.97 43.7156C592.73 43.915 592.509 44.136 592.309 44.3759C590.075 46.4075 587.027 47.5757 583.726 47.5757C576.666 47.5757 571.028 41.938 571.028 34.8781C571.028 27.8183 576.666 22.1806 583.726 22.1806L583.777 22.1298Z" fill="black"/>
    <defs>
        <filter id="filter0_d_2034_94" x="0.5" y="0.5" width="637" height="80" filterUnits="userSpaceOnUse" color-interpolation-filters="sRGB">
            <feFlood flood-opacity="0" result="BackgroundImageFix"/>
            <feColorMatrix in="SourceAlpha" type="matrix" values="0 0 0 0 0 0 0 0 0 0 0 0 0 0 0 0 0 0 127 0" result="hardAlpha"/>
            <feOffset dy="4"/>
            <feGaussianBlur stdDeviation="2"/>
            <feComposite in2="hardAlpha" operator="out"/>
            <feColorMatrix type="matrix" values="0 0 0 0 0 0 0 0 0 0 0 0 0 0 0 0 0 0 0.25 0"/>
            <feBlend mode="normal" in2="BackgroundImageFix" result="effect1_dropShadow_2034_94"/>
            <feBlend mode="normal" in="SourceGraphic" in2="effect1_dropShadow_2034_94" result="shape"/>
        </filter>
    </defs>
</svg>
